<svg width="16" height="16" viewBox="0 0 16 16" fill="none" xmlns="http://www.w3.org/2000/svg">
<g clip-path="url(#clip0)">
<path d="M5.33366 0.66748C2.73366 0.66748 0.666992 2.73415 0.666992 5.33415C0.666992 7.93415 2.73366 10.0008 5.33366 10.0008C7.93366 10.0008 10.0003 7.93415 10.0003 5.33415C10.0003 2.73415 7.93366 0.66748 5.33366 0.66748Z" fill="url(#paint0_linear)"/>
<path d="M12.0003 8.66748C10.1337 8.66748 8.66699 10.1341 8.66699 12.0008C8.66699 13.8675 10.1337 15.3341 12.0003 15.3341C13.867 15.3341 15.3337 13.8675 15.3337 12.0008C15.3337 10.1341 13.867 8.66748 12.0003 8.66748Z" fill="url(#paint1_linear)"/>
<path d="M13.334 6.66748C14.4386 6.66748 15.334 5.77205 15.334 4.66748C15.334 3.56291 14.4386 2.66748 13.334 2.66748C12.2294 2.66748 11.334 3.56291 11.334 4.66748C11.334 5.77205 12.2294 6.66748 13.334 6.66748Z" fill="url(#paint2_linear)"/>
</g>
<defs>
<linearGradient id="paint0_linear" x1="5.33366" y1="0.66748" x2="5.33366" y2="10.0008" gradientUnits="userSpaceOnUse">
<stop stop-color="#7BDDFC"/>
<stop offset="1" stop-color="#69C9DE"/>
</linearGradient>
<linearGradient id="paint1_linear" x1="12.0003" y1="8.66748" x2="12.0003" y2="15.3341" gradientUnits="userSpaceOnUse">
<stop stop-color="#7BDDFC"/>
<stop offset="1" stop-color="#69C9DE"/>
</linearGradient>
<linearGradient id="paint2_linear" x1="13.334" y1="2.66748" x2="13.334" y2="6.66748" gradientUnits="userSpaceOnUse">
<stop stop-color="#7BDDFC"/>
<stop offset="1" stop-color="#69C9DE"/>
</linearGradient>
<clipPath id="clip0">
<rect width="16" height="16" fill="white" transform="translate(0 0.000976562)"/>
</clipPath>
</defs>
</svg>
