<svg width="16" height="16" viewBox="0 0 16 16" fill="none" xmlns="http://www.w3.org/2000/svg">
<g clip-path="url(#clip0)">
<path d="M9 0.000976562H7V2.00098H9V0.000976562Z" fill="url(#paint0_linear)"/>
<path d="M14.2937 3.0525L12.8799 1.6377L11.4651 3.0515L12.8789 4.4663L14.2937 3.0525Z" fill="url(#paint1_linear)"/>
<path d="M16 7.00098H14V9.00098H16V7.00098Z" fill="url(#paint2_linear)"/>
<path d="M11.5354 13.0203L12.9502 14.4341L14.364 13.0193L12.9492 11.6055L11.5354 13.0203Z" fill="url(#paint3_linear)"/>
<path d="M9 14.001H7V16.001H9V14.001Z" fill="url(#paint4_linear)"/>
<path d="M1.56569 12.9495L2.97949 14.3643L4.39429 12.9505L2.98049 11.5357L1.56569 12.9495Z" fill="url(#paint5_linear)"/>
<path d="M2 7.00098H0V9.00098H2V7.00098Z" fill="url(#paint6_linear)"/>
<path d="M4.4646 3.12132L3.0498 1.70752L1.636 3.12232L3.0508 4.53612L4.4646 3.12132Z" fill="url(#paint7_linear)"/>
<path d="M8 4.00098C5.8 4.00098 4 5.80098 4 8.00098C4 10.201 5.8 12.001 8 12.001C10.2 12.001 12 10.201 12 8.00098C12 5.80098 10.2 4.00098 8 4.00098Z" fill="url(#paint8_linear)"/>
</g>
<defs>
<linearGradient id="paint0_linear" x1="8" y1="0.000976562" x2="8" y2="2.00098" gradientUnits="userSpaceOnUse">
<stop stop-color="#FFC81D"/>
<stop offset="1" stop-color="#FFAA3A"/>
</linearGradient>
<linearGradient id="paint1_linear" x1="13.5868" y1="2.3451" x2="12.172" y2="3.7589" gradientUnits="userSpaceOnUse">
<stop stop-color="#FFC81D"/>
<stop offset="1" stop-color="#FFAA3A"/>
</linearGradient>
<linearGradient id="paint2_linear" x1="15" y1="7.00098" x2="15" y2="9.00098" gradientUnits="userSpaceOnUse">
<stop stop-color="#FFC81D"/>
<stop offset="1" stop-color="#FFAA3A"/>
</linearGradient>
<linearGradient id="paint3_linear" x1="12.2428" y1="13.7272" x2="13.6566" y2="12.3124" gradientUnits="userSpaceOnUse">
<stop stop-color="#FFC81D"/>
<stop offset="1" stop-color="#FFAA3A"/>
</linearGradient>
<linearGradient id="paint4_linear" x1="8" y1="14.001" x2="8" y2="16.001" gradientUnits="userSpaceOnUse">
<stop stop-color="#FFC81D"/>
<stop offset="1" stop-color="#FFAA3A"/>
</linearGradient>
<linearGradient id="paint5_linear" x1="2.27259" y1="13.6569" x2="3.68739" y2="12.2431" gradientUnits="userSpaceOnUse">
<stop stop-color="#FFC81D"/>
<stop offset="1" stop-color="#FFAA3A"/>
</linearGradient>
<linearGradient id="paint6_linear" x1="1" y1="7.00098" x2="1" y2="9.00098" gradientUnits="userSpaceOnUse">
<stop stop-color="#FFC81D"/>
<stop offset="1" stop-color="#FFAA3A"/>
</linearGradient>
<linearGradient id="paint7_linear" x1="3.7572" y1="2.41442" x2="2.3434" y2="3.82922" gradientUnits="userSpaceOnUse">
<stop stop-color="#FFC81D"/>
<stop offset="1" stop-color="#FFAA3A"/>
</linearGradient>
<linearGradient id="paint8_linear" x1="8" y1="4.00098" x2="8" y2="12.001" gradientUnits="userSpaceOnUse">
<stop stop-color="#FFC81D"/>
<stop offset="1" stop-color="#FFAA3A"/>
</linearGradient>
<clipPath id="clip0">
<rect width="16" height="16" fill="white" transform="translate(0 0.000976562)"/>
</clipPath>
</defs>
</svg>
